<?xml version="1.0" encoding="utf-8"?>
<!-- Generator: Adobe Illustrator 26.0.1, SVG Export Plug-In . SVG Version: 6.00 Build 0)  -->
<svg version="1.1" id="Capa_1" xmlns="http://www.w3.org/2000/svg" xmlns:xlink="http://www.w3.org/1999/xlink" x="0px" y="0px"
	 viewBox="0 0 127.5 30.5" style="enable-background:new 0 0 127.5 30.5;" xml:space="preserve">
<style type="text/css">
	.st0{fill:#003E8B;}
	.st1{fill:#F9C626;}
</style>
<g>
	<path class="st0" d="M20.7,26.1c-2.3,2.4-5.4,3.7-8.7,3.6c-6.6,0-12-4-12-12s5.5-12,12-12c3.1-0.1,6.1,1.1,8.2,3.4l-3.5,3.7
		c-1.2-1.1-2.9-1.8-4.6-1.8c-3.5-0.1-6.4,2.7-6.5,6.2c0,0.2,0,0.3,0,0.5c0,4.3,2.9,6.6,6.4,6.6c1.9,0.1,3.7-0.6,5-1.9L20.7,26.1z"/>
	<path class="st0" d="M55.5,19.7c0.4,2.8,2.8,4.8,6.8,4.8c2.1,0,4.8-0.8,6.1-2.1l3.6,3.5c-2.4,2.5-6.3,3.7-9.7,3.7
		c-7.8,0-12.4-4.8-12.4-12.1c0-6.9,4.7-11.8,12-11.8c7.6,0,12.3,4.7,11.4,14C73.3,19.7,55.5,19.7,55.5,19.7z M67.8,15.1
		c-0.4-2.9-2.7-4.4-5.9-4.4c-3,0-5.5,1.5-6.3,4.4H67.8z"/>
	<path class="st0" d="M94.1,29V17.2c0-3.5-1.9-6.1-5.5-6.1c-3.6,0-5.8,2.9-5.8,6.3V29h-5.5V6.3h5l0.4,3.1C85,7.2,87.3,6,90.1,6
		c5.3,0,9.6,4,9.6,11.1V29C99.7,29,94.1,29,94.1,29z"/>
	<path class="st0" d="M111.5,0v6.4h6.2v4.8h-6.3V21c0,2.2,1.2,3.2,2.9,3.2c0.9,0,1.9-0.3,2.7-0.7l1.6,4.8c-1.5,0.6-3,1-4.6,1
		c-4.9,0.2-8.1-2.6-8.1-8.3v-9.8h-4.2V6.4h4.2V0.6L111.5,0z"/>
	<path class="st0" d="M121.9,6.3V29h5.6V6.3H121.9z"/>
</g>
<path class="st1" d="M40.6,19.4c0,1.7-0.6,3.4-1.9,4.6c-1.1,1.2-2.6,1.8-4.2,1.8c-1.7,0-3.3-0.6-4.4-1.8c-1.3-1.2-2-2.9-1.9-4.6v-5
	c0-1.4-1.1-2.5-2.5-2.5h-0.3c-1.4,0-2.5,1.1-2.5,2.5v5.3c0,2.9,1.2,5.7,3.2,7.7c2.3,2.2,5.4,3.3,8.5,3.1c6,0.3,11.1-4.3,11.4-10.2
	c0-0.2,0-0.4,0-0.6v-5.3c0-1.4-1.1-2.5-2.5-2.5h-0.3c-1.4,0-2.5,1.1-2.5,2.5L40.6,19.4z"/>
<path class="st1" d="M30.8,3c0.6,0.5,1,1.3,1,2.2c0,0.8-0.4,1.6-1,2.2c-0.7,0.7-1.5,1-2.5,1c-0.9,0-1.8-0.3-2.5-1
	c-0.6-0.6-1-1.4-1-2.2s0.4-1.6,1-2.2c0.7-0.7,1.6-1,2.5-1C29.3,2,30.2,2.3,30.8,3z"/>
<path class="st1" d="M37.7,3.2h4.5c1.1,0,2,0.9,2,2l0,0c0,1.1-0.9,2-2,2h-4.4c-1.1,0-2-0.9-2-2l0,0C35.8,4.1,36.6,3.2,37.7,3.2z"/>
</svg>
