<?xml version="1.0" encoding="utf-8"?>
<!-- Generator: Adobe Illustrator 26.0.1, SVG Export Plug-In . SVG Version: 6.00 Build 0)  -->
<svg version="1.1" id="Capa_1" xmlns="http://www.w3.org/2000/svg" xmlns:xlink="http://www.w3.org/1999/xlink" x="0px" y="0px"
	 viewBox="0 0 36 36" style="enable-background:new 0 0 36 36;" xml:space="preserve">
<style type="text/css">
	.st0{fill:#003E8B;}
</style>
<path id="Icon_awesome-facebook-square" class="st0" d="M32.1,0H3.9C1.7,0,0,1.7,0,3.9v28.3C0,34.3,1.7,36,3.9,36h11V23.8H9.8V18
	h5.1v-4.4c0-5,3-7.8,7.5-7.8c1.5,0,3,0.2,4.5,0.4v4.9h-2.5c-2.5,0-3.2,1.5-3.2,3.1V18h5.5l-0.9,5.8h-4.6V36h11
	c2.1,0,3.9-1.7,3.9-3.9V3.9C36,1.7,34.3,0,32.1,0z"/>
</svg>
