<?xml version="1.0" encoding="utf-8"?>
<!-- Generator: Adobe Illustrator 26.0.1, SVG Export Plug-In . SVG Version: 6.00 Build 0)  -->
<svg version="1.1" id="Capa_1" xmlns="http://www.w3.org/2000/svg" xmlns:xlink="http://www.w3.org/1999/xlink" x="0px" y="0px"
	 viewBox="0 0 36 36" style="enable-background:new 0 0 36 36;" xml:space="preserve">
<style type="text/css">
	.st0{fill:#003E8B;}
</style>
<path id="Icon_simple-instagram" class="st0" d="M18,0c-4.9,0-5.5,0-7.4,0.1c-1.5,0-3,0.3-4.4,0.8C5,1.4,3.9,2.1,3,3
	C2.1,3.9,1.4,5,0.9,6.2c-0.5,1.4-0.8,2.9-0.8,4.4C0,12.5,0,13.1,0,18s0,5.5,0.1,7.4c0,1.5,0.3,3,0.8,4.4C1.4,31,2.1,32.1,3,33
	c0.9,0.9,2,1.6,3.2,2.1c1.4,0.5,2.9,0.8,4.4,0.8C12.5,36,13.1,36,18,36s5.5,0,7.4-0.1c1.5,0,3-0.3,4.4-0.8c2.4-0.9,4.3-2.8,5.3-5.3
	c0.5-1.4,0.8-2.9,0.8-4.4C36,23.5,36,22.9,36,18s0-5.5-0.1-7.4c0-1.5-0.3-3-0.8-4.4C34.6,5,33.9,3.9,33,3c-0.9-0.9-2-1.6-3.2-2.1
	c-1.4-0.5-2.9-0.8-4.4-0.8C23.5,0,22.9,0,18,0z M18,3.2c4.8,0,5.4,0,7.3,0.1c1.1,0,2.3,0.2,3.3,0.6c1.6,0.6,2.8,1.8,3.4,3.4
	c0.4,1.1,0.6,2.2,0.6,3.3c0.1,1.9,0.1,2.5,0.1,7.3s0,5.4-0.1,7.3c0,1.1-0.2,2.3-0.6,3.3c-0.3,0.8-0.8,1.5-1.3,2.1
	c-0.6,0.6-1.3,1.1-2.1,1.3c-1.1,0.4-2.2,0.6-3.4,0.6c-1.9,0.1-2.5,0.1-7.3,0.1s-5.4,0-7.3-0.1c-1.1,0-2.3-0.2-3.4-0.6
	c-0.8-0.3-1.5-0.7-2.1-1.3c-0.6-0.6-1.1-1.3-1.3-2.1c-0.4-1.1-0.6-2.2-0.6-3.4c-0.1-1.9-0.1-2.5-0.1-7.3s0-5.4,0.1-7.3
	c0-1.1,0.2-2.3,0.6-3.4c0.3-0.8,0.7-1.5,1.3-2.1c0.6-0.6,1.3-1.1,2.1-1.3c1.1-0.4,2.2-0.6,3.3-0.6C12.6,3.2,13.1,3.2,18,3.2L18,3.2z
	 M18,8.8c-5.1,0-9.2,4.1-9.2,9.2s4.1,9.2,9.2,9.2s9.2-4.1,9.2-9.2l0,0C27.2,12.9,23.1,8.8,18,8.8C18,8.8,18,8.8,18,8.8z M18,24
	c-3.3,0-6-2.7-6-6s2.7-6,6-6s6,2.7,6,6S21.3,24,18,24z M29.8,8.4c0,1.2-1,2.2-2.2,2.2c-1.2,0-2.2-1-2.2-2.2s1-2.2,2.2-2.2
	c0,0,0,0,0,0C28.8,6.2,29.8,7.2,29.8,8.4z"/>
</svg>
