<?xml version="1.0" encoding="utf-8"?>
<!-- Generator: Adobe Illustrator 25.2.1, SVG Export Plug-In . SVG Version: 6.00 Build 0)  -->
<svg version="1.1" id="Capa_1" xmlns="http://www.w3.org/2000/svg" xmlns:xlink="http://www.w3.org/1999/xlink" x="0px" y="0px"
	 viewBox="0 0 512 512" style="enable-background:new 0 0 512 512;" xml:space="preserve">
<style type="text/css">
	.st0{fill:#F9C626;}
</style>
<path class="st0" d="M338.4,297.6c0,24.1-8.2,44.3-24.7,60.7s-35.2,24.5-56.1,24.5c-23,0-42.5-8-58.5-23.9
	c-17-16.8-25.5-37.2-25.5-61.2v-66.9c0-18.4-14.9-33.2-33.2-33.2c0,0,0,0-0.1,0h-4.6c-18.3,0-33.2,14.9-33.2,33.2v69.6
	c0.8,40.3,15,74.3,42.6,102S210.4,444,258,444c45,0,81.1-13.6,108.3-40.8c28-28.3,42.3-62.6,43.1-102.9v-69.6
	c0-18.4-14.9-33.2-33.2-33.2c0,0,0,0,0,0h-4.6c-18.4,0-33.2,14.9-33.2,33.2c0,0,0,0,0,0L338.4,297.6z"/>
<path class="st0" d="M209.6,80.7c8.7,8.5,13.1,17.9,13.1,28.4c0,11-4.4,20.7-13.1,29.1c-8.7,8.5-19.6,12.7-32.7,12.7
	c-13.6,0-24.7-4.2-33.3-12.7c-8.6-8.5-12.9-18.2-12.9-29.1c0-10.5,4.3-20,12.9-28.4c8.6-8.5,19.7-12.7,33.3-12.7
	C190,68.1,200.9,72.3,209.6,80.7z"/>
<path class="st0" d="M277,83.3h106.2c1.3,0,2.4,1.1,2.4,2.4v47.7c0,1.3-1.1,2.4-2.4,2.4H277c-1.3,0-2.4-1.1-2.4-2.4V85.6
	C274.7,84.3,275.7,83.3,277,83.3z"/>
</svg>
