<?xml version="1.0" encoding="utf-8"?>
<!-- Generator: Adobe Illustrator 26.0.1, SVG Export Plug-In . SVG Version: 6.00 Build 0)  -->
<svg version="1.1" id="Capa_1" xmlns="http://www.w3.org/2000/svg" xmlns:xlink="http://www.w3.org/1999/xlink" x="0px" y="0px"
	 viewBox="0 0 41.1 30.9" style="enable-background:new 0 0 41.1 30.9;" xml:space="preserve">
<style type="text/css">
	.st0{fill:#003E8B;}
</style>
<path id="Icon_ionic-logo-youtube" class="st0" d="M40.9,6.8c0.2-3.4-2.5-6.4-5.9-6.5C30.5,0.1,25.9,0,21.3,0h-1.4
	c-4.6,0-9.2,0.1-13.6,0.3c-3.3,0-5.9,2.9-5.9,6.5C0.1,9.7,0,12.6,0,15.4c0,2.9,0.1,5.7,0.3,8.6c0,3.6,2.7,6.5,5.9,6.5
	c4.7,0.2,9.5,0.3,14.4,0.3c4.9,0,9.7-0.1,14.4-0.3c3.3,0,5.9-2.9,5.9-6.5c0.2-2.9,0.3-5.7,0.3-8.6C41.2,12.5,41.1,9.7,40.9,6.8z
	 M16.6,23.3V7.5l11.7,7.9L16.6,23.3z"/>
</svg>
